<?xml version="1.0" encoding="UTF-8"?>
<svg id="Camada_1" xmlns="http://www.w3.org/2000/svg" version="1.1" viewBox="0 0 20 16">
  <!-- Generator: Adobe Illustrator 30.0.0, SVG Export Plug-In . SVG Version: 2.1.1 Build 123)  -->
  <defs>
    <style>
      .st0 {
        fill: #fff;
      }
    </style>
  </defs>
  <path class="st0" d="M12,9h5v-2h-5v2ZM12,6h5v-2h-5v2ZM3,12h8v-.55c0-.75-.37-1.35-1.1-1.79-.73-.44-1.7-.66-2.9-.66s-2.17.22-2.9.66c-.73.44-1.1,1.04-1.1,1.79v.55ZM8.41,7.41c.39-.39.59-.86.59-1.41s-.2-1.02-.59-1.41c-.39-.39-.86-.59-1.41-.59s-1.02.2-1.41.59c-.39.39-.59.86-.59,1.41s.2,1.02.59,1.41c.39.39.86.59,1.41.59s1.02-.2,1.41-.59ZM2,16c-.55,0-1.02-.2-1.41-.59-.39-.39-.59-.86-.59-1.41V2C0,1.45.2.98.59.59c.39-.39.86-.59,1.41-.59h16c.55,0,1.02.2,1.41.59.39.39.59.86.59,1.41v12c0,.55-.2,1.02-.59,1.41-.39.39-.86.59-1.41.59H2ZM2,14h16V2H2v12Z"/>
</svg>