<svg width="46" height="46" viewBox="0 0 46 46" fill="none" xmlns="http://www.w3.org/2000/svg">
<path d="M23 0C35.7025 0 46 10.2975 46 23C46 35.7025 35.7025 46 23 46C10.2975 46 0 35.7025 0 23C0 10.2975 10.2975 0 23 0ZM7 18.667L12.8184 21.8447V30.5107L23 36L33.1816 30.5107V21.8447L36.0908 20.2559V30.2227H39V18.667L23 10L7 18.667ZM30.2725 28.8135L23 32.7139L15.7275 28.8135V23.3613L23 27.333L30.2725 23.3613V28.8135ZM32.9639 18.667L23 24.0107L13.0361 18.667L23 13.3223L32.9639 18.667Z" fill="white"/>
</svg>
