<svg width="46" height="46" viewBox="0 0 46 46" fill="none" xmlns="http://www.w3.org/2000/svg">
<path d="M23 0C35.7025 0 46 10.2975 46 23C46 35.7025 35.7025 46 23 46C10.2975 46 0 35.7025 0 23C0 10.2975 10.2975 0 23 0ZM15.5 10C14.8125 10 14.224 10.2448 13.7344 10.7344C13.2448 11.224 13 11.8125 13 12.5V32.5C13 33.1875 13.2448 33.776 13.7344 34.2656C14.224 34.7552 14.8125 35 15.5 35H30.5C31.1875 35 31.776 34.7552 32.2656 34.2656C32.7552 33.776 33 33.1875 33 32.5V17.5L25.5 10H15.5ZM24.25 12.5V18.75H30.5V32.5H15.5V12.5H24.25ZM18 31.25H24.25V28.75H18V31.25ZM18 27.5H28V25H18V27.5ZM18 23.75H28V21.25H18V23.75Z" fill="white"/>
</svg>
