<svg width="46" height="46" viewBox="0 0 46 46" fill="none" xmlns="http://www.w3.org/2000/svg">
<path d="M23 0C35.7025 0 46 10.2975 46 23C46 35.7025 35.7025 46 23 46C10.2975 46 0 35.7025 0 23C0 10.2975 10.2975 0 23 0ZM33.6816 21.2939C33.4308 21.2939 33.1796 21.3414 32.9287 21.4355C32.6779 21.5297 32.4503 21.6828 32.2451 21.8945L24.6846 29.6592V34H28.8926L36.418 26.2354C36.6232 26.0236 36.7721 25.7823 36.8633 25.5117C36.9545 25.2412 37 24.9765 37 24.7178C37 24.459 36.9483 24.2002 36.8457 23.9414C36.7431 23.6826 36.6004 23.4471 36.418 23.2354L35.1523 21.9297C34.9472 21.718 34.7195 21.559 34.4688 21.4531C34.2179 21.3473 33.9553 21.294 33.6816 21.2939ZM21.9473 22.7061C20.442 22.7061 18.9596 22.8882 17.5 23.2529C16.0404 23.6176 14.6035 24.1651 13.1895 24.8945C12.5281 25.2475 11.9977 25.7592 11.5986 26.4297C11.1996 27.1002 11 27.8358 11 28.6357V32.5879H21.9473V29.7646H13.7373V28.6357C13.7373 28.377 13.7995 28.1414 13.9248 27.9297C14.0502 27.718 14.2157 27.5532 14.4209 27.4355C15.6525 26.8003 16.896 26.3235 18.1504 26.0059C19.4046 25.6883 20.6702 25.5293 21.9473 25.5293C22.4033 25.5293 22.848 25.5526 23.2812 25.5996C23.7146 25.6467 24.1601 25.7058 24.6162 25.7764L26.9082 23.377C26.0872 23.1417 25.2654 22.9701 24.4443 22.8643C23.6234 22.7584 22.791 22.7061 21.9473 22.7061ZM32.1768 27.5762L28.0371 31.8828H26.7373V30.541L30.9102 26.2705L32.1768 27.5762ZM21.9473 10C20.4421 10 19.1539 10.5534 18.082 11.6592C17.0101 12.7651 16.4736 14.0945 16.4736 15.6475C16.4737 17.2002 17.0102 18.53 18.082 19.6357C19.1538 20.7413 20.4423 21.2939 21.9473 21.2939C23.4525 21.2939 24.7416 20.7416 25.8135 19.6357C26.8853 18.53 27.4208 17.2002 27.4209 15.6475C27.4209 14.0947 26.8852 12.765 25.8135 11.6592C24.7415 10.5533 23.4525 10 21.9473 10ZM21.9473 12.8232C22.6999 12.8232 23.3439 13.1004 23.8799 13.6533C24.4158 14.2063 24.6846 14.871 24.6846 15.6475C24.6845 16.4238 24.4158 17.0888 23.8799 17.6416C23.344 18.1943 22.6997 18.4707 21.9473 18.4707C21.1948 18.4707 20.5505 18.1943 20.0146 17.6416C19.4788 17.0888 19.211 16.4238 19.2109 15.6475C19.2109 14.871 19.4788 14.2062 20.0146 13.6533C20.5506 13.1004 21.1947 12.8233 21.9473 12.8232Z" fill="white"/>
</svg>
