<svg width="392" height="80" viewBox="0 0 392 80" fill="none" xmlns="http://www.w3.org/2000/svg">
<path d="M71.5282 26.0339V38.0583L70.9025 38.1764C70.477 38.2572 70.0578 38.3814 69.6699 38.5368C68.8378 38.8786 68.0244 39.1458 67.2424 39.3446C65.4092 39.8045 63.7824 40.0406 62.4122 40.0406C59.6343 40.0406 57.2067 39.4938 55.1983 38.4125C53.1712 37.3188 51.6195 35.8274 50.5809 33.9632C49.5486 32.1176 49.0293 30.0482 49.0293 27.8111C49.0293 25.574 49.5486 23.4799 50.5809 21.628C51.6195 19.77 53.1712 18.2662 55.1983 17.1663C57.2067 16.0726 59.6343 15.5195 62.4185 15.5195C63.8951 15.5195 65.5343 15.7494 67.2924 16.1968C69.0693 16.6567 70.3206 17.1041 71.1152 17.5764L71.4969 17.8001V21.5535H70.0203L69.7951 21.1993C69.7262 21.0874 69.4697 20.7643 68.5688 20.0807C67.893 19.5649 66.9671 19.0802 65.8096 18.639C64.6709 18.204 63.3445 17.9865 61.8804 17.9865C59.9471 17.9865 58.2766 18.4277 56.9127 19.2915C55.5425 20.1615 54.5039 21.3422 53.8094 22.8087C53.1024 24.3063 52.7395 25.9904 52.7395 27.8111C52.7395 29.6319 53.0961 31.3035 53.8031 32.7763C54.4913 34.2242 55.5362 35.3986 56.9064 36.2686C58.2703 37.1386 59.9409 37.5736 61.8742 37.5736C63.3007 37.5736 64.6021 37.3872 65.7345 37.0268C66.4853 36.7844 67.1485 36.511 67.7116 36.2003C67.9932 35.9144 68.1558 35.5105 68.1558 35.0817V26.0277H71.5344L71.5282 26.0339Z" fill="#7E3B79"/>
<path d="M77.6284 39.5187V16.0602H81.007V39.5187H77.6284Z" fill="#7E3B79"/>
<path d="M111.402 27.8174C111.402 30.0234 110.901 32.0803 109.925 33.9197C108.936 35.7777 107.466 37.2816 105.552 38.3877C103.643 39.4876 101.366 40.0407 98.7694 40.0407C96.1729 40.0407 93.8329 39.4876 91.9246 38.4063C90.0038 37.3126 88.546 35.8088 87.5762 33.9446C86.619 32.1052 86.1372 30.0421 86.1372 27.8174C86.1372 25.5927 86.619 23.4985 87.5762 21.6529C88.546 19.7887 90.0038 18.2848 91.9246 17.1787C93.8329 16.0788 96.1353 15.5257 98.7756 15.5257C101.416 15.5257 103.712 16.085 105.62 17.1787C107.535 18.2786 108.999 19.7887 109.969 21.6529C110.926 23.4923 111.408 25.5678 111.408 27.8174H111.402ZM106.772 32.9192C107.479 31.3967 107.835 29.6816 107.835 27.8112C107.835 25.9283 107.479 24.2007 106.772 22.6783C106.077 21.1869 105.045 19.9813 103.693 19.0927C102.354 18.2103 100.696 17.7628 98.7756 17.7628C96.8548 17.7628 95.1968 18.2103 93.8516 19.0927C92.5002 19.9813 91.4679 21.1869 90.7796 22.6783C90.0726 24.2007 89.7097 25.9283 89.7097 27.8174C89.7097 29.7065 90.0664 31.3967 90.7734 32.9254C91.4616 34.4168 92.4939 35.6162 93.8454 36.4924C95.1906 37.3624 96.8486 37.8098 98.7694 37.8098C100.69 37.8098 102.348 37.3686 103.693 36.4924C105.045 35.6162 106.077 34.4168 106.772 32.9254V32.9192Z" fill="#7E3B79"/>
<path d="M137.661 16.0602L125.849 39.5187H124.629L113.467 16.0602H117.24L125.655 34.1931L134.839 16.0602H137.655H137.661Z" fill="#7E3B79"/>
<path d="M161.429 39.5124H157.713L154.923 33.5282H143.93C143.373 33.5282 142.866 33.8513 142.609 34.3671L140.138 39.5124H137.279L149.066 15.2523H150.299L161.436 39.5124H161.429ZM144.261 31.2289H153.803L149.31 21.2055L144.267 31.2289H144.261Z" fill="#7E3B79"/>
<path d="M189.785 16.0602V39.5187H187.632L187.495 38.9221C187.482 38.8662 186.043 33.1864 177.81 28.6439C173.874 26.5373 170.846 24.3561 168.787 22.1438V39.5124H166.26V16.0539H168.556L168.75 16.5386C169.438 18.2724 171.678 21.7896 178.954 25.8288C183.171 28.1716 185.718 30.4087 187.257 32.2357V16.0477H189.785V16.0602Z" fill="#7E3B79"/>
<path d="M218.815 39.5124H215.099L212.308 33.5282H201.315C200.759 33.5282 200.252 33.8513 199.995 34.3671L197.524 39.5124H194.665L206.452 15.2523H207.685L218.821 39.5124H218.815ZM201.641 31.2289H211.182L206.69 21.2055L201.647 31.2289H201.641Z" fill="#7E3B79"/>
<path d="M235.64 16.0167V30.9866C235.64 32.8384 235.571 34.2304 235.434 35.3676C235.265 36.7347 234.896 37.9279 234.345 38.9159C234.245 39.0899 234.138 39.2577 234.026 39.4255C233.475 40.2209 232.762 40.8734 231.886 41.3643C230.929 41.8987 229.702 42.1908 228.238 42.2405L227.444 42.2653V40.3389L228.476 40.1152C228.777 40.0345 229.046 39.9412 229.277 39.8356C230.09 39.4628 230.691 38.978 231.123 38.3504C231.561 37.7104 231.855 36.9212 231.999 36.0077L232.055 35.641C232.105 35.2495 232.149 34.8456 232.18 34.4106C232.199 34.1869 232.211 33.957 232.224 33.7022C232.243 33.3231 232.255 32.9068 232.261 32.4221V16.0229H235.64V16.0167Z" fill="#7E3B79"/>
<path d="M263.489 39.5125H259.772L256.982 33.5282H245.989C245.432 33.5282 244.925 33.8513 244.669 34.3671L242.197 39.5125H239.338L251.125 15.2523H252.358L263.495 39.5125H263.489ZM246.314 31.229H255.855L251.363 21.2055L246.32 31.229H246.314Z" fill="#7E3B79"/>
<path d="M271.159 24.3436H279.962V26.8542H271.159V39.5187H267.78V16.0602H286.012L286.644 18.5707H271.165V24.3436H271.159Z" fill="#7E3B79"/>
<path d="M294.352 37.0081H309.831L309.205 39.5187H290.974V16.0602H309.205L309.831 18.5707H294.352V24.3436H303.155V26.8542H294.352V37.0081Z" fill="#7E3B79"/>
<path d="M333.025 37.0081L332.399 39.5187H314.167V16.0602H317.546V37.0081H333.025Z" fill="#7E3B79"/>
<path d="M337.686 39.5187V16.0602H341.064V39.5187H337.686Z" fill="#7E3B79"/>
<path d="M368.106 34.0067V37.7538L367.743 37.9775C367.011 38.4312 365.766 38.8786 363.939 39.3509C362.149 39.8107 360.567 40.0469 359.234 40.0469C356.525 40.0469 354.16 39.5 352.201 38.4125C350.231 37.3188 348.716 35.8212 347.709 33.9632C346.708 32.1176 346.208 30.0545 346.208 27.8236C346.208 25.5927 346.714 23.4923 347.709 21.6529C348.716 19.7949 350.231 18.291 352.201 17.1911C354.153 16.0974 356.525 15.5382 359.234 15.5382C360.673 15.5382 362.275 15.7681 363.983 16.2217C365.716 16.6816 366.929 17.1352 367.705 17.6075L368.074 17.8312V21.5783H366.598L366.373 21.2179C366.304 21.1123 366.054 20.7829 365.184 20.0994C364.533 19.5836 363.632 19.0989 362.506 18.6639C361.405 18.2289 360.122 18.0114 358.702 18.0114C356.831 18.0114 355.211 18.4464 353.897 19.3102C352.571 20.1801 351.557 21.3608 350.887 22.8274C350.199 24.3312 349.849 26.0153 349.849 27.836C349.849 29.6568 350.199 31.3284 350.887 32.8074C351.557 34.2553 352.571 35.4297 353.897 36.2935C355.217 37.1573 356.831 37.5923 358.708 37.5923C360.091 37.5923 361.355 37.4121 362.45 37.0516C363.532 36.6974 364.421 36.2624 365.078 35.7715C365.716 35.2992 366.154 34.8394 366.391 34.4168L366.61 34.0191H368.112L368.106 34.0067Z" fill="#7E3B79"/>
<path d="M376.521 37.0081H392L391.374 39.5187H373.143V16.0602H391.374L392 18.5707H376.521V24.3436H385.324V26.8542H376.521V37.0081Z" fill="#7E3B79"/>
<path d="M59.8162 53.5272C59.8162 54.0883 59.6639 54.6178 59.3655 55.0907C59.0672 55.5698 58.6546 55.9544 58.1405 56.2255C57.6263 56.5028 57.0551 56.6415 56.452 56.6415H53.0879V59.7685H51.8945V50.4065H56.4457C57.0551 50.4065 57.62 50.5452 58.1341 50.8226C58.6483 51.1 59.0609 51.4845 59.3592 51.9574C59.6575 52.4365 59.8099 52.9598 59.8099 53.5209L59.8162 53.5272ZM53.0815 51.2071V55.8409H55.6523C55.8808 55.8409 56.1093 55.8283 56.3124 55.7967C56.6552 55.7463 56.9725 55.6581 57.2391 55.5257C57.6708 55.3176 57.9945 55.0402 58.2103 54.6998C58.4134 54.3783 58.5213 54.0063 58.534 53.6028V53.5209V53.4641C58.5213 53.0606 58.4134 52.6887 58.2103 52.3671C57.9945 52.0267 57.6644 51.743 57.2391 51.5413C56.9662 51.4089 56.6552 51.3206 56.3124 51.2702C56.2362 51.2576 56.1664 51.245 56.0902 51.2386C56.0902 51.2386 56.0331 51.2387 56.0077 51.2323H55.9252C55.8808 51.2197 55.8363 51.2197 55.7919 51.2134H53.0879L53.0815 51.2071Z" fill="#171714"/>
<path d="M74.9358 57.4233C74.9358 57.9214 74.7581 58.3816 74.409 58.7977C74.0662 59.2075 73.5775 59.5416 72.9618 59.7875C72.3524 60.0334 71.6542 60.1532 70.8861 60.1532C69.915 60.1532 69.1279 60.0586 68.5629 59.8758C67.998 59.6929 67.4648 59.4471 66.9761 59.1381L66.8872 59.0814V57.7575H67.3125L67.3696 57.8331C67.6045 58.1294 67.8393 58.3879 68.0551 58.5897C68.1948 58.722 68.4106 58.8607 68.6836 58.9994L68.7407 59.0247C69.1596 59.2138 69.6103 59.3273 70.08 59.3525C70.4291 59.3714 70.8354 59.384 71.2226 59.3651H71.3812C71.4257 59.3525 71.4701 59.3462 71.5082 59.3462C71.6097 59.3399 71.705 59.3273 71.8002 59.3147C72.0858 59.2705 72.3651 59.1886 72.6317 59.0562C72.9935 58.8923 73.2728 58.6905 73.4759 58.451C73.6981 58.1862 73.806 57.9025 73.806 57.5936C73.806 57.5683 73.806 57.5494 73.806 57.5242C73.806 57.4801 73.806 57.4423 73.7933 57.4044C73.7679 57.1901 73.6854 57.0009 73.5584 56.8307C73.4823 56.7172 73.3934 56.6227 73.2855 56.5344C72.9554 56.2633 72.5555 56.049 72.0795 55.8851C71.9017 55.822 71.5336 55.7148 70.9813 55.5572L70.4355 55.4059C69.769 55.2231 69.1279 54.9835 68.5376 54.6998C68.4043 54.6368 68.3217 54.5927 68.271 54.5611C67.998 54.3909 67.7568 54.1892 67.541 53.9685C67.2363 53.6533 67.0586 53.2813 67.0015 52.8463C66.9951 52.7959 66.9888 52.7391 66.9888 52.6824C66.9888 52.6446 66.9888 52.6005 66.9888 52.5626C66.9888 52.0709 67.1538 51.6296 67.4712 51.245C67.7886 50.873 68.2265 50.5767 68.7851 50.3687C69.331 50.1669 69.9721 50.0598 70.6767 50.0598C71.1337 50.0598 71.6415 50.1165 72.1937 50.23C72.4349 50.2804 72.6761 50.3372 72.9237 50.4128C73.2093 50.4948 73.4823 50.5893 73.7235 50.6902L73.8441 50.7406V52.0772H73.4124L73.3553 51.9952C73.1395 51.6989 72.8158 51.4215 72.3968 51.1756C72.3968 51.1756 72.3778 51.1693 72.3588 51.163C71.8256 50.9487 71.267 50.8352 70.683 50.8352C70.5053 50.8352 70.3466 50.8352 70.1943 50.8541C69.6166 50.8919 69.0771 51.0937 68.6264 51.4278C68.5883 51.4593 68.5566 51.4846 68.5376 51.5035C68.4931 51.5476 68.455 51.5917 68.417 51.6359L68.3979 51.6548C68.2138 51.8754 68.1186 52.1276 68.1186 52.4113C68.1186 52.4365 68.1186 52.4554 68.1186 52.4807C68.1186 52.5122 68.1186 52.55 68.125 52.5815C68.1377 52.6761 68.1567 52.7644 68.1884 52.8463C68.2519 53.0481 68.3789 53.212 68.5756 53.3633L68.6328 53.4011C68.7216 53.4768 68.8105 53.5335 68.8994 53.5902C68.9184 53.6029 68.9501 53.6218 68.9946 53.6407C69.1787 53.7542 69.3754 53.8424 69.5785 53.9244C69.9213 54.0568 70.3974 54.2081 71.0321 54.4035C71.6542 54.5863 72.1874 54.7629 72.6317 54.9205C72.765 54.9709 72.8856 55.0213 72.9935 55.0655C73.514 55.2861 73.9583 55.5887 74.3265 55.967C74.6375 56.2885 74.8279 56.6731 74.8787 57.1081C74.8851 57.1649 74.8914 57.2216 74.8978 57.2846C74.8978 57.3225 74.8978 57.3603 74.8978 57.3981L74.9358 57.4233Z" fill="#171714"/>
<path d="M82.2988 59.7749V50.4128H83.4922V59.7749H82.2988Z" fill="#171714"/>
<path d="M99.2464 57.7637V59.1002L99.1511 59.157C98.8465 59.3335 98.3196 59.5163 97.5452 59.7055C96.7835 59.8946 96.1107 59.9892 95.5521 59.9892C94.4096 59.9892 93.4066 59.7685 92.5878 59.3335C91.7563 58.8985 91.1279 58.2996 90.7026 57.562C90.2837 56.8243 90.0679 55.9985 90.0679 55.1032C90.0679 54.208 90.2773 53.3695 90.7026 52.6319C91.1279 51.888 91.7563 51.2891 92.5878 50.8541C93.413 50.4127 94.4096 50.1921 95.5585 50.1921C96.1678 50.1921 96.847 50.2867 97.5706 50.4695C98.3069 50.6523 98.8211 50.8351 99.1448 51.0243L99.24 51.081V52.4239H98.8084L98.7513 52.3356C98.7005 52.2599 98.5672 52.1149 98.2117 51.8438C97.9197 51.6232 97.5198 51.4215 97.0247 51.2386C96.536 51.0558 95.9647 50.9612 95.3363 50.9612C94.5048 50.9612 93.7812 51.1504 93.1908 51.516C92.6005 51.8817 92.1435 52.386 91.8452 53.0102C91.5405 53.6406 91.3818 54.353 91.3818 55.1158C91.3818 55.8787 91.5341 56.5848 91.8452 57.2089C92.1435 57.8267 92.6005 58.3248 93.1908 58.6905C93.7812 59.0561 94.5048 59.2452 95.3363 59.2452C95.9457 59.2452 96.5042 59.1696 96.9866 59.0183C97.4691 58.867 97.8626 58.6842 98.1609 58.4761C98.4529 58.2681 98.656 58.0726 98.7639 57.8835L98.8211 57.7826H99.2591L99.2464 57.7637Z" fill="#171714"/>
<path d="M116.677 55.1033C116.677 55.9859 116.468 56.8118 116.055 57.5431C115.642 58.287 115.02 58.8859 114.22 59.3209C113.421 59.7622 112.456 59.9829 111.364 59.9829C110.272 59.9829 109.282 59.7622 108.476 59.3272C107.67 58.8922 107.061 58.2933 106.654 57.5494C106.254 56.8118 106.045 55.9859 106.045 55.097C106.045 54.208 106.248 53.3633 106.654 52.6319C107.061 51.888 107.67 51.2891 108.476 50.8478C109.276 50.4065 110.247 50.1858 111.364 50.1858C112.481 50.1858 113.446 50.4065 114.246 50.8478C115.052 51.2891 115.661 51.888 116.068 52.6319C116.468 53.3696 116.671 54.2017 116.671 55.1033H116.677ZM109.168 58.7661C109.771 59.1381 110.507 59.3272 111.364 59.3272C112.221 59.3272 112.957 59.1381 113.56 58.7661C114.163 58.3942 114.627 57.8835 114.931 57.2531C115.242 56.61 115.401 55.8913 115.401 55.1096C115.401 54.3278 115.242 53.5902 114.931 52.9535C114.62 52.323 114.157 51.8061 113.554 51.4278C112.951 51.0558 112.215 50.8604 111.358 50.8604C110.501 50.8604 109.765 51.0495 109.162 51.4278C108.559 51.8061 108.095 52.3167 107.79 52.9472C107.479 53.5902 107.321 54.3152 107.321 55.1033C107.321 55.8913 107.479 56.61 107.79 57.2468C108.102 57.8772 108.559 58.3879 109.162 58.7598L109.168 58.7661Z" fill="#171714"/>
<path d="M131.568 58.9931L131.365 59.7685H123.742V50.4065H124.929V58.9931H131.562H131.568Z" fill="#171714"/>
<path d="M148.295 55.1033C148.295 55.9859 148.085 56.8118 147.673 57.5431C147.26 58.287 146.638 58.8859 145.838 59.3209C145.038 59.7622 144.074 59.9829 142.982 59.9829C141.89 59.9829 140.9 59.7622 140.094 59.3272C139.288 58.8922 138.678 58.2933 138.272 57.5494C137.872 56.8118 137.663 55.9859 137.663 55.097C137.663 54.208 137.866 53.3633 138.272 52.6319C138.678 51.888 139.288 51.2891 140.094 50.8478C140.893 50.4065 141.865 50.1858 142.982 50.1858C144.099 50.1858 145.064 50.4065 145.87 50.8478C146.67 51.2891 147.285 51.888 147.692 52.6319C148.092 53.3696 148.301 54.2017 148.301 55.1033H148.295ZM140.786 58.7661C141.389 59.1381 142.125 59.3272 142.982 59.3272C143.839 59.3272 144.575 59.1381 145.178 58.7661C145.781 58.3942 146.244 57.8835 146.555 57.2531C146.866 56.61 147.025 55.8913 147.025 55.1096C147.025 54.3278 146.866 53.5902 146.555 52.9535C146.244 52.323 145.781 51.8061 145.178 51.4278C144.575 51.0558 143.839 50.8604 142.982 50.8604C142.125 50.8604 141.389 51.0495 140.786 51.4278C140.183 51.8061 139.719 52.3167 139.415 52.9472C139.103 53.5902 138.945 54.3152 138.945 55.1033C138.945 55.8913 139.103 56.61 139.415 57.2468C139.719 57.8772 140.183 58.3879 140.786 58.7598V58.7661Z" fill="#171714"/>
<path d="M164.81 54.4981V59.1949L164.645 59.2264C164.454 59.2642 164.264 59.3147 164.086 59.384C163.731 59.5227 163.388 59.6299 163.058 59.7118C162.277 59.901 161.585 59.9955 161.008 59.9955C159.833 59.9955 158.805 59.7749 157.961 59.3399C157.11 58.9049 156.457 58.3059 156.025 57.5683C155.593 56.8307 155.371 56.0048 155.371 55.1096C155.371 54.2144 155.587 53.3759 156.025 52.6383C156.463 51.8943 157.11 51.2954 157.961 50.8604C158.805 50.4254 159.833 50.1985 161.008 50.1985C161.636 50.1985 162.328 50.293 163.077 50.4758C163.832 50.6587 164.359 50.8415 164.689 51.0306L164.784 51.0874V52.4302H164.353L164.296 52.342C164.245 52.2663 164.105 52.1213 163.737 51.8502C163.439 51.6296 163.026 51.4278 162.512 51.2387C162.004 51.0559 161.42 50.9613 160.773 50.9613C159.916 50.9613 159.167 51.1504 158.558 51.5161C157.948 51.8817 157.478 52.3861 157.174 53.0102C156.863 53.6407 156.704 54.3468 156.704 55.1159C156.704 55.885 156.863 56.5848 157.174 57.2027C157.485 57.8205 157.948 58.3186 158.558 58.6842C159.167 59.0499 159.91 59.239 160.773 59.239C161.401 59.239 161.979 59.1633 162.48 59.012C162.817 58.9112 163.121 58.7914 163.375 58.659C163.528 58.5203 163.616 58.3123 163.616 58.0979V54.5107H164.81V54.4981Z" fill="#171714"/>
<path d="M172.446 59.7749V50.4128H173.633V59.7749H172.446Z" fill="#171714"/>
<path d="M190.283 59.7748H188.969L187.763 57.3224H182.939C182.647 57.3224 182.387 57.48 182.253 57.7385L181.225 59.7748H180.286L185.237 50.0786H185.599L189.743 58.6715L189.566 58.7535L189.75 58.6778L190.277 59.7748H190.283ZM182.875 56.6289H187.408L185.275 52.1023L182.875 56.6289Z" fill="#171714"/>
<path d="M211.521 58.9931H218.155L217.951 59.7685H210.328V50.4065H217.951L218.155 51.1819H211.521V53.7982H215.317V54.5737H211.521V58.9868V58.9931Z" fill="#171714"/>
<path d="M246.159 53.5272C246.159 54.0883 246.007 54.6178 245.709 55.0907C245.41 55.5698 244.998 55.9544 244.484 56.2255C243.97 56.5028 243.398 56.6415 242.795 56.6415H239.431V59.7685H238.244V50.4065H242.795C243.405 50.4065 243.97 50.5452 244.484 50.8226C244.998 51.1 245.41 51.4845 245.709 51.9574C246.007 52.4365 246.159 52.9598 246.159 53.5209V53.5272ZM239.431 51.2071V55.8409H242.002C242.23 55.8409 242.453 55.8283 242.662 55.7967C243.005 55.7463 243.322 55.6581 243.589 55.5257C244.02 55.3176 244.344 55.0402 244.56 54.6998C244.763 54.3783 244.871 54.0063 244.884 53.6028V53.5209V53.4641C244.871 53.0606 244.763 52.6887 244.56 52.3671C244.344 52.0267 244.014 51.743 243.589 51.5413C243.316 51.4089 243.005 51.3206 242.662 51.2702C242.586 51.2576 242.516 51.245 242.44 51.2386C242.44 51.2386 242.383 51.2387 242.357 51.2323H242.275C242.23 51.2197 242.186 51.2197 242.142 51.2134H239.437L239.431 51.2071Z" fill="#171714"/>
<path d="M261.286 57.4233C261.286 57.9214 261.108 58.3816 260.759 58.7977C260.416 59.2075 259.928 59.5416 259.312 59.7875C258.702 60.0334 258.004 60.1532 257.23 60.1532C256.259 60.1532 255.478 60.0586 254.907 59.8758C254.342 59.6929 253.809 59.4471 253.32 59.1381L253.231 59.0814V57.7575H253.656L253.72 57.8331C253.955 58.1294 254.189 58.3879 254.405 58.5897C254.545 58.722 254.761 58.8607 255.034 58.9994L255.091 59.0247C255.51 59.2138 255.96 59.3273 256.43 59.3525C256.779 59.3714 257.185 59.384 257.573 59.3651H257.731C257.776 59.3525 257.82 59.3462 257.858 59.3462C257.96 59.3399 258.055 59.3273 258.15 59.3147C258.436 59.2705 258.715 59.1886 258.982 59.0562C259.344 58.8923 259.623 58.6905 259.826 58.451C260.048 58.1862 260.156 57.9025 260.156 57.5936C260.156 57.5683 260.156 57.5494 260.156 57.5242C260.156 57.4801 260.156 57.4423 260.143 57.4044C260.118 57.1901 260.035 57.0009 259.909 56.8307C259.832 56.7172 259.743 56.6227 259.636 56.5344C259.306 56.2633 258.906 56.049 258.43 55.8851C258.252 55.822 257.884 55.7148 257.331 55.5572L256.786 55.4059C256.119 55.2231 255.478 54.9835 254.888 54.6998C254.754 54.6368 254.672 54.5927 254.621 54.5611C254.348 54.3909 254.107 54.1892 253.891 53.9685C253.586 53.6533 253.409 53.2813 253.352 52.8463C253.352 52.7959 253.339 52.7391 253.339 52.6824C253.339 52.6446 253.339 52.6005 253.339 52.5626C253.339 52.0709 253.504 51.6296 253.821 51.245C254.139 50.873 254.577 50.5767 255.135 50.3687C255.681 50.1669 256.322 50.0598 257.027 50.0598C257.484 50.0598 257.992 50.1165 258.544 50.23C258.785 50.2804 259.026 50.3372 259.28 50.4128C259.566 50.4948 259.839 50.5893 260.08 50.6902L260.201 50.7406V52.0772H259.769L259.712 51.9952C259.496 51.6989 259.172 51.4215 258.753 51.1756C258.753 51.1756 258.734 51.1693 258.715 51.163C258.182 50.9487 257.623 50.8352 257.039 50.8352C256.862 50.8352 256.703 50.8352 256.551 50.8541C255.973 50.8919 255.434 51.0937 254.983 51.4278C254.945 51.4593 254.913 51.4846 254.888 51.5035C254.843 51.5476 254.805 51.5917 254.767 51.6359L254.748 51.6548C254.564 51.8754 254.469 52.1276 254.469 52.4113C254.469 52.4365 254.469 52.4554 254.469 52.4807C254.469 52.5122 254.469 52.55 254.475 52.5815C254.488 52.6761 254.507 52.7644 254.545 52.8463C254.608 53.0481 254.735 53.212 254.932 53.3633L254.989 53.4011C255.078 53.4768 255.167 53.5335 255.256 53.5902C255.275 53.6029 255.307 53.6218 255.351 53.6407C255.535 53.7542 255.732 53.8424 255.935 53.9244C256.278 54.0568 256.754 54.2081 257.389 54.4035C258.004 54.5863 258.544 54.7629 258.988 54.9205C259.121 54.9709 259.236 55.0213 259.35 55.0655C259.87 55.2861 260.315 55.5887 260.683 55.967C260.994 56.2885 261.184 56.6731 261.235 57.1081C261.241 57.1649 261.248 57.2216 261.248 57.2846C261.248 57.3225 261.248 57.3603 261.248 57.3981L261.286 57.4233Z" fill="#171714"/>
<path d="M268.649 59.7749V50.4128H269.842V59.7749H268.649Z" fill="#171714"/>
<path d="M285.597 57.7637V59.1002L285.502 59.157C285.197 59.3335 284.67 59.5163 283.896 59.7055C283.134 59.8946 282.461 59.9892 281.903 59.9892C280.76 59.9892 279.757 59.7685 278.938 59.3335C278.113 58.8985 277.478 58.2996 277.053 57.562C276.634 56.8243 276.418 55.9985 276.418 55.1032C276.418 54.208 276.628 53.3695 277.053 52.6319C277.478 51.888 278.107 51.2891 278.938 50.8541C279.764 50.4127 280.76 50.1921 281.903 50.1921C282.512 50.1921 283.191 50.2867 283.915 50.4695C284.651 50.6523 285.165 50.8351 285.489 51.0243L285.584 51.081V52.4239H285.153L285.095 52.3356C285.045 52.2599 284.911 52.1149 284.556 51.8438C284.264 51.6232 283.864 51.4215 283.369 51.2386C282.88 51.0558 282.309 50.9612 281.681 50.9612C280.849 50.9612 280.125 51.1504 279.535 51.516C278.945 51.8817 278.488 52.386 278.189 53.0102C277.885 53.6406 277.726 54.353 277.726 55.1158C277.726 55.8787 277.878 56.5848 278.183 57.2089C278.481 57.8267 278.938 58.3248 279.529 58.6905C280.119 59.0561 280.843 59.2452 281.674 59.2452C282.284 59.2452 282.842 59.1696 283.325 59.0183C283.807 58.867 284.2 58.6842 284.499 58.4761C284.791 58.2681 284.994 58.0726 285.102 57.8835L285.159 57.7826H285.597V57.7637Z" fill="#171714"/>
<path d="M302.278 59.7748H300.964L299.758 57.3224H294.934C294.642 57.3224 294.381 57.48 294.248 57.7385L293.22 59.7748H292.28L297.231 50.0786H297.593L301.738 58.6715L301.56 58.7535L301.744 58.6778L302.271 59.7748H302.278ZM294.864 56.6289H299.396L297.263 52.1023L294.864 56.6289Z" fill="#171714"/>
<path d="M319.944 50.4064V59.7685H319.258L319.22 59.6235C319.22 59.6235 318.592 57.2215 314.98 55.3302C313.139 54.3908 311.768 53.4263 310.892 52.4428V59.7685H310.067V50.4064H310.835L310.886 50.5262C311.19 51.2512 312.168 52.7265 315.342 54.3971C317.379 55.4752 318.503 56.4902 319.118 57.272V50.4001H319.944V50.4064Z" fill="#171714"/>
<path d="M337.754 59.7748H336.44L335.234 57.3224H330.41C330.118 57.3224 329.858 57.48 329.725 57.7385L328.677 59.7748H327.757L332.708 50.0786H333.07L337.215 58.6716L337.037 58.7535L337.221 58.6779L337.754 59.7748ZM330.347 56.6289H334.879L332.746 52.1023L330.347 56.6289ZM332.302 50.0471L331.959 49.7949L332.492 48.7799C332.556 48.6664 332.619 48.5593 332.683 48.4647C332.765 48.3512 332.835 48.263 332.955 48.263C333.057 48.263 333.165 48.3071 333.292 48.3953C333.4 48.471 333.514 48.5656 333.514 48.698C333.514 48.8051 333.451 48.9312 333.127 49.2338L332.302 50.0408V50.0471Z" fill="#171714"/>
<path d="M352.892 58.9931L352.689 59.7685H345.066V50.4065H346.253V58.9931H352.886H352.892Z" fill="#171714"/>
<path d="M360.523 59.7749V50.4128H361.71V59.7749H360.523Z" fill="#171714"/>
<path d="M377.121 57.4233C377.121 57.9214 376.944 58.3816 376.595 58.7977C376.252 59.2075 375.763 59.5416 375.147 59.7875C374.538 60.0334 373.84 60.1532 373.072 60.1532C372.101 60.1532 371.313 60.0586 370.749 59.8758C370.184 59.6929 369.65 59.4471 369.162 59.1381L369.073 59.0814V57.7575H369.498L369.555 57.8331C369.79 58.1294 370.025 58.3879 370.241 58.5897C370.38 58.722 370.596 58.8607 370.869 58.9994L370.926 59.0247C371.345 59.2138 371.796 59.3273 372.266 59.3525C372.615 59.3714 373.021 59.384 373.408 59.3651H373.567C373.611 59.3525 373.656 59.3462 373.694 59.3462C373.795 59.3399 373.891 59.3273 373.986 59.3147C374.271 59.2705 374.551 59.1886 374.817 59.0562C375.179 58.8923 375.458 58.6905 375.661 58.451C375.884 58.1862 375.992 57.9025 375.992 57.5936C375.992 57.5683 375.992 57.5494 375.992 57.5242C375.992 57.4801 375.992 57.4423 375.979 57.4044C375.953 57.1901 375.871 57.0009 375.744 56.8307C375.668 56.7172 375.579 56.6227 375.471 56.5344C375.141 56.2633 374.741 56.049 374.265 55.8851C374.087 55.822 373.719 55.7148 373.167 55.5572L372.621 55.4059C371.954 55.2231 371.313 54.9835 370.723 54.6998C370.59 54.6368 370.507 54.5927 370.457 54.5611C370.184 54.3909 369.942 54.1892 369.727 53.9685C369.428 53.6533 369.244 53.2813 369.193 52.8463C369.187 52.7959 369.181 52.7391 369.181 52.6824C369.181 52.6446 369.181 52.6005 369.181 52.5626C369.181 52.0709 369.346 51.6296 369.663 51.245C369.98 50.873 370.418 50.5767 370.977 50.3687C371.523 50.1669 372.164 50.0598 372.869 50.0598C373.326 50.0598 373.833 50.1165 374.386 50.23C374.627 50.2804 374.868 50.3372 375.116 50.4128C375.401 50.4948 375.674 50.5893 375.915 50.6902L376.036 50.7406V52.0772H375.604L375.547 51.9952C375.331 51.6989 375.014 51.4215 374.589 51.1756C374.589 51.1756 374.57 51.1693 374.551 51.163C374.024 50.9487 373.459 50.8352 372.875 50.8352C372.697 50.8352 372.538 50.8352 372.386 50.8541C371.809 50.8919 371.269 51.0937 370.818 51.4278C370.78 51.4593 370.748 51.4846 370.729 51.5035C370.685 51.5476 370.647 51.5917 370.609 51.6359L370.59 51.6548C370.406 51.8754 370.311 52.1276 370.311 52.4113C370.311 52.4365 370.311 52.4554 370.311 52.4807C370.311 52.5122 370.31 52.55 370.317 52.5815C370.33 52.6761 370.355 52.7644 370.38 52.8463C370.444 53.0481 370.571 53.212 370.768 53.3633L370.825 53.4011C370.914 53.4768 371.002 53.5335 371.091 53.5902C371.11 53.6029 371.142 53.6218 371.186 53.6407C371.371 53.7542 371.567 53.8424 371.77 53.9244C372.113 54.0568 372.589 54.2081 373.224 54.4035C373.846 54.5863 374.379 54.7629 374.824 54.9205C374.957 54.9709 375.071 55.0213 375.185 55.0655C375.706 55.2861 376.15 55.5887 376.518 55.967C376.829 56.2885 377.02 56.6731 377.071 57.1081C377.077 57.1649 377.083 57.2216 377.09 57.2846C377.09 57.3225 377.09 57.3603 377.09 57.3981L377.121 57.4233Z" fill="#171714"/>
<path d="M385.367 58.9931H392L391.797 59.7685H384.173V50.4065H391.797L392 51.1819H385.367V53.7982H389.162V54.5737H385.367V58.9868V58.9931Z" fill="#171714"/>
<path d="M20.7866 80C20.2982 80 19.9028 79.6073 19.9028 79.1223V21.1676C19.9028 20.6826 20.2982 20.2899 20.7866 20.2899C21.275 20.2899 21.6703 20.6826 21.6703 21.1676V79.1223C21.6703 79.6073 21.275 80 20.7866 80Z" fill="#668E7D"/>
<path d="M20.7867 67.8593C10.9539 67.8593 2.95361 59.9134 2.95361 50.1473V33.3083C2.95361 32.8233 3.34897 32.4306 3.83736 32.4306C4.32575 32.4306 4.72111 32.8233 4.72111 33.3083V50.1473C4.72111 58.9479 11.9306 66.1085 20.7914 66.1085C29.6521 66.1085 36.8616 58.9479 36.8616 50.1473V33.3083C36.8616 32.8233 37.257 32.4306 37.7454 32.4306C38.2338 32.4306 38.6291 32.8233 38.6291 33.3083V50.1473C38.6291 59.9134 30.6289 67.8593 20.796 67.8593H20.7867Z" fill="#668E7D"/>
<path d="M0 0C2.56752 10.4545 10.7213 18.733 21.1448 21.5418C18.5773 11.0828 10.4236 2.8088 0 0Z" fill="#668E7D"/>
<path d="M41.5779 0C39.0104 10.4545 30.8567 18.733 20.4331 21.5418C23.0006 11.0828 31.1544 2.8088 41.5779 0Z" fill="#668E7D"/>
</svg>
