<?xml version="1.0" encoding="UTF-8"?>
<svg id="Camada_1" xmlns="http://www.w3.org/2000/svg" version="1.1" viewBox="0 0 16 20">
  <!-- Generator: Adobe Illustrator 30.0.0, SVG Export Plug-In . SVG Version: 2.1.1 Build 123)  -->
  <defs>
    <style>
      .st0 {
        fill: #fff;
      }
    </style>
  </defs>
  <path class="st0" d="M9.41,9.41c.39-.39.59-.86.59-1.41s-.2-1.02-.59-1.41c-.39-.39-.86-.59-1.41-.59s-1.02.2-1.41.59c-.39.39-.59.86-.59,1.41s.2,1.02.59,1.41c.39.39.86.59,1.41.59s1.02-.2,1.41-.59ZM8,17.35c2.03-1.87,3.54-3.56,4.52-5.09.98-1.52,1.48-2.88,1.48-4.06,0-1.82-.58-3.3-1.74-4.46-1.16-1.16-2.58-1.74-4.26-1.74s-3.1.58-4.26,1.74c-1.16,1.16-1.74,2.65-1.74,4.46,0,1.18.49,2.54,1.47,4.06.98,1.53,2.49,3.22,4.53,5.09ZM8,20c-2.68-2.28-4.69-4.4-6.01-6.36-1.32-1.96-1.99-3.77-1.99-5.44C0,5.7.8,3.71,2.41,2.22,4.02.74,5.88,0,8,0s3.98.74,5.59,2.22c1.61,1.48,2.41,3.47,2.41,5.97,0,1.67-.66,3.48-1.99,5.44-1.32,1.96-3.33,4.08-6.01,6.36Z"/>
</svg>