<?xml version="1.0" encoding="UTF-8"?>
<svg id="Camada_1" xmlns="http://www.w3.org/2000/svg" version="1.1" viewBox="0 0 18 18">
  <!-- Generator: Adobe Illustrator 30.0.0, SVG Export Plug-In . SVG Version: 2.1.1 Build 123)  -->
  <defs>
    <style>
      .st0 {
        fill: #fff;
      }
    </style>
  </defs>
  <path class="st0" d="M16.95,18c-2.08,0-4.14-.45-6.18-1.36-2.03-.91-3.88-2.2-5.55-3.86-1.67-1.67-2.95-3.52-3.86-5.55C.45,5.19,0,3.13,0,1.05c0-.3.1-.55.3-.75.2-.2.45-.3.75-.3h4.05c.23,0,.44.08.62.24.18.16.29.35.33.56l.65,3.5c.03.27.03.49-.02.67-.05.18-.14.34-.28.47l-2.43,2.45c.33.62.73,1.21,1.19,1.79.46.57.96,1.13,1.51,1.66.52.52,1.06,1,1.62,1.44.57.44,1.17.85,1.8,1.21l2.35-2.35c.15-.15.35-.26.59-.34.24-.07.48-.1.71-.06l3.45.7c.23.07.42.19.57.36s.23.37.23.59v4.05c0,.3-.1.55-.3.75-.2.2-.45.3-.75.3ZM3.03,6l1.65-1.65-.43-2.35h-2.22c.08.68.2,1.36.35,2.03.15.67.37,1.32.65,1.97ZM11.98,14.95c.65.28,1.31.51,1.99.68.68.17,1.35.27,2.04.32v-2.2l-2.35-.48-1.67,1.68Z"/>
</svg>