<svg width="44" height="45" viewBox="0 0 44 45" fill="none" xmlns="http://www.w3.org/2000/svg">
<g clip-path="url(#clip0_294_35520)">
<path d="M21.7011 44.064C33.6862 44.064 43.4021 34.3481 43.4021 22.3629C43.4021 10.3778 33.6862 0.661865 21.7011 0.661865C9.7159 0.661865 0 10.3778 0 22.3629C0 34.3481 9.7159 44.064 21.7011 44.064Z" fill="url(#paint0_linear_294_35520)"/>
<path fill-rule="evenodd" clip-rule="evenodd" d="M35.4232 22.0104C35.4232 29.3928 29.3913 35.3788 21.951 35.3788C19.5879 35.3788 17.3679 34.7756 15.4381 33.7152L7.97852 36.0857L10.4096 28.9136C9.18306 26.8983 8.47704 24.5361 8.47704 22.0104C8.47704 14.627 14.5089 8.64105 21.9501 8.64105C29.3913 8.64105 35.4223 14.627 35.4223 22.0104H35.4232ZM21.951 10.7701C15.7034 10.7701 10.6236 15.8114 10.6236 22.0104C10.6236 24.4681 11.4241 26.7468 12.7811 28.6005L11.3663 32.7742L15.7181 31.3915C17.5065 32.5648 19.6484 33.2497 21.951 33.2497C28.1959 33.2497 33.2776 28.2075 33.2776 22.0113C33.2776 15.8151 28.1959 10.771 21.951 10.771V10.7701ZM28.7541 25.0888C28.6706 24.952 28.4502 24.8703 28.1216 24.7059C27.7911 24.5425 26.1669 23.7483 25.864 23.64C25.5619 23.5308 25.3397 23.4757 25.1212 23.8034C24.9009 24.1312 24.2674 24.8693 24.0746 25.0888C23.8827 25.3082 23.6899 25.3348 23.3603 25.1705C23.0298 25.0071 21.9648 24.66 20.7043 23.5445C19.7228 22.6751 19.0599 21.6027 18.8662 21.275C18.6743 20.9472 18.847 20.77 19.0104 20.6066C19.1591 20.4588 19.3409 20.2238 19.5061 20.0337C19.6714 19.8418 19.7265 19.7041 19.8367 19.4856C19.9468 19.2671 19.8917 19.0761 19.8082 18.9127C19.7265 18.7493 19.0655 17.1362 18.79 16.4798C18.5164 15.8252 18.241 15.849 18.0473 15.849C17.8536 15.849 17.4992 15.906 17.4992 15.906C17.4992 15.906 16.8372 15.9877 16.5352 16.3154C16.2331 16.6432 15.3802 17.4364 15.3802 19.0477C15.3802 20.6589 16.5627 22.2188 16.728 22.4364C16.8932 22.6558 19.0122 26.072 22.3697 27.384C25.7272 28.696 25.7272 28.258 26.3331 28.2029C26.9372 28.1497 28.2868 27.4106 28.5623 26.6459C28.8377 25.8802 28.8377 25.2237 28.756 25.0888H28.7541Z" fill="white"/>
</g>
<defs>
<linearGradient id="paint0_linear_294_35520" x1="21.7011" y1="44.064" x2="21.7011" y2="0.661865" gradientUnits="userSpaceOnUse">
<stop stop-color="#20B038"/>
<stop offset="1" stop-color="#60D66A"/>
</linearGradient>
<clipPath id="clip0_294_35520">
<rect width="43.4021" height="44.7258" fill="white"/>
</clipPath>
</defs>
</svg>
